# Blender 4.0.2
# www.blender.org
mtllib mdl_player_dummy.mtl
o dummy
v 0.229221 -0.000000 -0.034611
v 0.155102 1.568272 -0.059668
v 0.229087 0.000000 0.144550
v 0.161649 1.572310 0.151067
v 0.000000 0.475772 0.317807
v 0.000000 1.550404 0.218282
v 0.000000 0.486623 -0.213834
v 0.000000 1.568272 -0.093488
v 0.306074 1.280325 0.197569
v 0.267304 1.282331 -0.153723
v 0.223321 1.261624 -0.252224
v 0.000000 1.298807 0.375662
v 0.315917 1.070238 0.191636
v 0.274937 1.106848 -0.157678
v 0.000000 1.084083 0.373758
v 0.000000 1.255989 -0.409841
v 0.282861 0.000000 0.035253
v 0.178116 1.600000 0.026868
v 0.000000 1.600000 0.026868
v 0.000000 0.408735 0.026868
v 0.306074 1.282303 0.026868
v 0.315917 1.084083 0.026868
v 0.000000 1.108349 -0.370894
v 0.000000 1.374822 -0.218601
v 0.215854 1.164033 -0.276926
v 0.000000 1.043426 -0.242600
v 0.000000 1.388059 -0.168802
v 0.179711 1.376910 -0.153856
v 0.129210 1.344191 -0.233164
v 0.114281 1.116004 -0.323482
v 0.163824 1.061888 -0.198342
v 0.161309 1.197470 -0.366076
v 0.175432 1.247411 -0.354128
v 0.000000 1.319369 -0.337316
v 0.000000 1.169628 -0.415367
v 0.072380 1.173456 -0.391661
v 0.097118 1.311339 -0.344598
v 0.232763 1.457028 -0.093094
v 0.269385 1.438602 0.188156
v 0.268253 1.451037 0.026868
v 0.178116 1.778013 -0.038348
v 0.172533 1.455570 -0.133561
v 0.000000 1.456616 -0.145760
v 0.000000 1.481251 0.293857
v 0.206049 1.553837 0.026868
v 0.205276 1.532521 0.172540
v 0.197855 1.557122 -0.009090
v 0.000000 1.594443 -0.033822
v 0.150176 1.289566 0.339997
v 0.087226 0.000000 0.118569
v 0.155097 1.077161 0.336079
v 0.091919 1.561357 0.207265
v 0.131831 1.368704 0.335291
v 0.102638 1.506886 0.264667
v 0.032951 1.550404 0.215285
v 0.000000 1.364007 0.355553
v 0.088749 -0.000000 -0.025957
v 0.065825 0.000000 0.035253
v 0.330365 0.594629 0.191599
v 0.306903 0.571547 -0.086558
v 0.000000 0.617660 0.378212
v 0.371159 0.574471 0.026868
v 0.000000 0.545509 -0.255837
v 0.182880 0.615180 0.358045
v 0.198050 0.564744 -0.217048
v 0.316419 0.816032 0.199793
v 0.294974 0.812014 -0.096545
v 0.000000 0.813062 0.359770
v 0.345446 0.813062 0.026868
v 0.000000 0.782570 -0.278970
v 0.171531 0.807871 0.323497
v 0.177122 0.796416 -0.220650
v 0.311349 0.988205 0.201826
v 0.254801 1.020239 -0.109811
v 0.000000 0.948573 0.366764
v 0.311349 1.000319 0.029641
v 0.162837 0.956823 0.328834
v 0.164248 0.469882 0.309463
v 0.316944 0.462427 0.185532
v 0.361784 0.464034 0.028076
v 0.175917 0.469131 -0.184637
v 0.291447 0.465747 -0.078323
v 0.282887 0.349225 0.165041
v 0.270189 0.350871 -0.056467
v 0.332173 0.350012 0.031664
v 0.124935 0.352966 0.241714
v 0.130770 0.352591 -0.134730
v 0.064193 0.355912 0.158734
v 0.042802 0.355912 0.031060
v 0.174343 0.000000 0.035253
v 0.147533 -0.000000 -0.059717
v 0.147466 0.000000 0.159257
v 0.000000 0.409068 -0.071866
v 0.069154 0.352568 -0.052661
v 0.000000 0.425193 -0.167516
v 0.034908 0.390598 -0.062263
v 0.051939 0.426693 0.238271
v 0.021401 0.390792 0.028209
v 0.074674 0.408475 -0.159966
v 0.000000 0.442370 0.199801
v 0.070100 0.473258 0.314246
v 0.000000 0.994667 -0.229656
v 0.166490 1.008664 -0.185351
v -0.229221 -0.000000 -0.034611
v -0.155102 1.568272 -0.059668
v -0.229087 0.000000 0.144550
v -0.161649 1.572310 0.151067
v -0.306074 1.280325 0.197569
v -0.267304 1.282331 -0.153723
v -0.223321 1.261624 -0.252224
v -0.315917 1.070238 0.191636
v -0.274937 1.106848 -0.157678
v -0.282861 0.000000 0.035253
v -0.178116 1.600000 0.026868
v -0.306074 1.282303 0.026868
v -0.315917 1.084083 0.026868
v -0.215854 1.164033 -0.276926
v -0.179711 1.376910 -0.153856
v -0.129210 1.344191 -0.233164
v -0.114281 1.116004 -0.323482
v -0.163824 1.061888 -0.198342
v -0.161309 1.197470 -0.366076
v -0.175432 1.247411 -0.354128
v -0.072380 1.173456 -0.391661
v -0.097118 1.311339 -0.344598
v -0.232763 1.457028 -0.093094
v -0.269385 1.438602 0.188156
v -0.268253 1.451037 0.026868
v -0.178116 1.778013 -0.038348
v -0.172533 1.455570 -0.133561
v -0.206049 1.553837 0.026868
v -0.205276 1.532521 0.172540
v -0.197855 1.557122 -0.009090
v -0.150176 1.289566 0.339997
v -0.087226 0.000000 0.118569
v -0.155097 1.077161 0.336079
v -0.091919 1.561357 0.207265
v -0.131831 1.368704 0.335291
v -0.102638 1.506886 0.264667
v -0.032951 1.550404 0.215285
v -0.088749 -0.000000 -0.025957
v -0.065825 0.000000 0.035253
v -0.330365 0.594629 0.191599
v -0.306903 0.571547 -0.086558
v -0.371159 0.574471 0.026868
v -0.182880 0.615180 0.358045
v -0.198050 0.564744 -0.217048
v -0.316419 0.816032 0.199793
v -0.294974 0.812014 -0.096545
v -0.345446 0.813062 0.026868
v -0.171531 0.807871 0.323497
v -0.177122 0.796416 -0.220650
v -0.311349 0.988205 0.201826
v -0.254801 1.020239 -0.109811
v -0.311349 1.000319 0.029641
v -0.162837 0.956823 0.328834
v -0.164248 0.469882 0.309463
v -0.316944 0.462427 0.185532
v -0.361784 0.464034 0.028076
v -0.175917 0.469131 -0.184637
v -0.291447 0.465747 -0.078323
v -0.282887 0.349225 0.165041
v -0.270189 0.350871 -0.056467
v -0.332173 0.350012 0.031664
v -0.124935 0.352966 0.241714
v -0.130770 0.352591 -0.134730
v -0.064193 0.355912 0.158734
v -0.042802 0.355912 0.031060
v -0.174343 0.000000 0.035253
v -0.147533 -0.000000 -0.059717
v -0.147466 0.000000 0.159257
v -0.069154 0.352568 -0.052661
v -0.034908 0.390598 -0.062263
v -0.051939 0.426693 0.238271
v -0.021401 0.390792 0.028209
v -0.074674 0.408475 -0.159966
v -0.070100 0.473258 0.314246
v -0.166490 1.008664 -0.185351
vn 0.9067 0.1243 0.4030
vn 0.9842 0.1403 -0.1080
vn 0.9205 0.3795 -0.0931
vn 0.8294 0.3904 0.3995
vn 0.8192 0.4670 -0.3329
vn -0.0000 0.9613 -0.2753
vn -0.0000 0.9941 -0.1088
vn 0.7949 0.3776 -0.4750
vn 0.6554 0.3485 -0.6701
vn 0.2928 0.7564 -0.5849
vn 0.3445 0.8405 -0.4182
vn 0.3763 0.5305 -0.7596
vn 0.8685 0.2692 -0.4162
vn 0.9895 -0.0516 -0.1352
vn 0.8470 -0.2565 -0.4656
vn -0.0000 -0.0290 0.9996
vn 0.4591 -0.0090 0.8883
vn 0.4709 0.0979 0.8767
vn -0.0000 0.0941 0.9956
vn -0.0000 -0.0423 0.9991
vn 0.4533 -0.0131 0.8913
vn 0.9881 0.0052 -0.1540
vn 0.8225 -0.1108 -0.5579
vn 0.8904 0.0263 0.4543
vn 0.9220 0.0027 0.3872
vn 0.5482 0.6656 0.5064
vn 0.3194 0.8019 -0.5050
vn 0.1483 0.7329 0.6640
vn 0.8532 0.5186 -0.0557
vn 0.7447 0.4308 -0.5098
vn 0.7491 0.5669 -0.3427
vn -0.0000 0.9266 -0.3762
vn -0.0000 0.6743 -0.7384
vn -0.0000 -0.7508 -0.6605
vn -0.0000 -0.2900 -0.9570
vn 0.3507 -0.3196 -0.8803
vn 0.3766 -0.7231 -0.5791
vn -0.0000 -0.6350 -0.7725
vn 0.4560 -0.5232 -0.7200
vn -0.0000 0.3734 -0.9277
vn -0.0000 0.8580 -0.5136
vn -0.0000 0.3928 -0.9196
vn 0.3088 0.4296 -0.8486
vn 0.5742 -0.2138 -0.7903
vn 0.7670 -0.3323 -0.5489
vn 0.3897 0.3236 0.8622
vn 0.6486 0.6329 0.4228
vn 0.3242 0.7257 -0.6069
vn -0.0703 0.8287 0.5553
vn -0.0000 0.7233 -0.6906
vn 0.2560 0.6136 0.7470
vn -0.0000 0.8730 0.4877
vn -0.0000 0.5875 0.8092
vn -0.0000 0.3288 0.9444
vn -0.6292 -0.6690 -0.3958
vn -0.1084 -0.7168 -0.6888
vn -0.0000 -1.0000 -0.0000
vn 0.8291 0.0975 -0.5505
vn 0.4987 0.0790 -0.8632
vn 0.5012 -0.0164 -0.8652
vn -0.6576 -0.6733 0.3381
vn -0.7414 -0.6695 -0.0458
vn -0.1773 -0.4038 0.8975
vn 0.7187 -0.2815 0.6358
vn 0.8000 -0.2705 0.5356
vn 0.2539 -0.4218 0.8704
vn 0.9658 -0.2252 -0.1282
vn 0.9702 -0.1976 -0.1400
vn 0.6612 -0.2310 -0.7138
vn -0.0638 -0.4377 -0.8969
vn 0.3868 -0.4073 -0.8273
vn 0.7319 -0.2572 -0.6310
vn -0.0000 -0.7322 0.6811
vn -0.0497 -0.6590 0.7505
vn 0.4251 -0.0860 0.9011
vn -0.0000 -0.1166 0.9932
vn 0.5077 -0.1790 -0.8427
vn -0.0000 -0.2598 -0.9657
vn -0.0000 0.0712 -0.9975
vn 0.8732 -0.0384 0.4858
vn 0.8808 0.0760 0.4674
vn 0.4575 0.0549 0.8875
vn 0.9912 -0.0228 -0.1304
vn 0.9852 0.1064 -0.1344
vn 0.8134 -0.0713 -0.5773
vn -0.0000 0.0510 0.9987
vn -0.0000 -0.0085 -1.0000
vn -0.4620 -0.7038 0.5396
vn -0.0000 -0.4897 -0.8719
vn 0.7486 -0.6571 -0.0883
vn 0.4539 -0.6906 -0.5630
vn 0.5032 -0.6709 0.5447
vn -0.8699 -0.3243 0.3718
vn -0.1452 -0.7260 0.6722
vn -0.7991 -0.4196 -0.4306
vn -0.9460 -0.3234 -0.0237
vn -0.5914 -0.7731 -0.2293
vn -0.1725 -0.6954 -0.6976
vn -0.6994 -0.7133 0.0454
vn -0.0000 -0.8008 -0.5989
vn -0.0000 -0.9958 0.0920
vn -0.0000 -0.9826 -0.1859
vn -0.0000 -0.9534 0.3017
vn -0.9067 0.1243 0.4030
vn -0.8294 0.3904 0.3995
vn -0.9205 0.3795 -0.0931
vn -0.9842 0.1403 -0.1080
vn -0.8192 0.4670 -0.3329
vn -0.7949 0.3776 -0.4750
vn -0.3445 0.8405 -0.4182
vn -0.2928 0.7564 -0.5849
vn -0.6554 0.3485 -0.6701
vn -0.3763 0.5305 -0.7596
vn -0.8685 0.2692 -0.4162
vn -0.9895 -0.0516 -0.1352
vn -0.8470 -0.2565 -0.4656
vn -0.4709 0.0979 0.8767
vn -0.4591 -0.0090 0.8883
vn -0.4533 -0.0131 0.8913
vn -0.9881 0.0052 -0.1540
vn -0.8225 -0.1108 -0.5579
vn -0.8904 0.0263 0.4543
vn -0.9220 0.0027 0.3872
vn -0.5482 0.6656 0.5064
vn -0.1483 0.7329 0.6640
vn -0.3194 0.8019 -0.5050
vn -0.8532 0.5186 -0.0557
vn -0.7491 0.5669 -0.3427
vn -0.7447 0.4308 -0.5098
vn -0.3766 -0.7231 -0.5791
vn -0.3507 -0.3196 -0.8803
vn -0.4560 -0.5232 -0.7200
vn -0.3088 0.4296 -0.8486
vn -0.5742 -0.2138 -0.7903
vn -0.7670 -0.3323 -0.5489
vn -0.3897 0.3236 0.8622
vn -0.6486 0.6329 0.4228
vn -0.3242 0.7257 -0.6069
vn 0.0703 0.8287 0.5553
vn -0.2560 0.6136 0.7470
vn 0.6292 -0.6690 -0.3958
vn 0.1084 -0.7168 -0.6888
vn -0.8291 0.0975 -0.5505
vn -0.5012 -0.0164 -0.8652
vn -0.4987 0.0790 -0.8632
vn 0.6576 -0.6733 0.3381
vn 0.7414 -0.6695 -0.0458
vn 0.1773 -0.4038 0.8975
vn -0.2539 -0.4218 0.8704
vn -0.8000 -0.2705 0.5356
vn -0.7187 -0.2815 0.6358
vn -0.9702 -0.1976 -0.1400
vn -0.9658 -0.2252 -0.1282
vn -0.6612 -0.2310 -0.7138
vn -0.7319 -0.2572 -0.6310
vn -0.3868 -0.4073 -0.8273
vn 0.0638 -0.4377 -0.8969
vn -0.4251 -0.0860 0.9011
vn 0.0497 -0.6590 0.7505
vn -0.5077 -0.1790 -0.8427
vn -0.4575 0.0549 0.8875
vn -0.8808 0.0760 0.4674
vn -0.8732 -0.0384 0.4858
vn -0.9852 0.1064 -0.1344
vn -0.9912 -0.0228 -0.1304
vn -0.8134 -0.0713 -0.5773
vn 0.4620 -0.7038 0.5396
vn -0.7486 -0.6571 -0.0883
vn -0.4539 -0.6906 -0.5630
vn -0.5032 -0.6709 0.5447
vn 0.1452 -0.7260 0.6722
vn 0.8699 -0.3243 0.3718
vn 0.7991 -0.4196 -0.4306
vn 0.9460 -0.3234 -0.0237
vn 0.5914 -0.7731 -0.2293
vn 0.1725 -0.6954 -0.6976
vn 0.6994 -0.7133 0.0454
vt 0.798828 0.167969
vt 0.798828 0.292969
vt 0.837116 0.292969
vt 0.836011 0.167969
vt 0.923828 0.292969
vt 1.048828 0.353922
vt 1.048828 0.292969
vt 0.798828 0.481912
vt 0.798828 0.512440
vt 0.827317 0.529746
vt 0.855806 0.516523
vt 0.847328 0.473263
vt 0.798828 0.417969
vt 0.736328 0.292969
vt 0.736328 0.417969
vt 0.736328 0.042969
vt 0.736328 0.105469
vt 0.798828 0.105469
vt 0.798828 0.042969
vt 0.728516 0.042969
vt 0.728516 0.105469
vt 0.728516 0.292969
vt 0.728516 0.417969
vt 0.728516 0.167969
vt 0.736328 0.167969
vt 0.923828 0.167969
vt 0.923828 0.105469
vt 0.896956 0.292969
vt 0.843976 0.417969
vt 0.903072 0.321419
vt 0.899340 0.542969
vt 0.908468 0.542969
vt 0.721355 0.542969
vt 0.728841 0.542969
vt 0.731833 0.532106
vt 0.727337 0.521243
vt 0.718571 0.542969
vt 0.727825 0.477824
vt 0.798828 0.542969
vt 0.849084 0.542969
vt 0.833636 0.301544
vt -0.154946 0.331334
vt -0.099507 0.589330
vt 0.848768 0.591536
vt 0.736328 0.542969
vt 0.736328 0.515780
vt 0.766857 0.481912
vt 0.736328 0.488591
vt 0.751592 0.512440
vt 0.817420 0.105469
vt 0.897696 0.167969
vt 0.878774 0.450534
vt 0.923828 0.417969
vt 0.923828 0.050414
vt -0.116024 1.029056
vt 0.752719 1.074372
vt 0.889191 0.105469
vt 0.923828 0.369956
vt 1.048828 0.417969
vt 0.923828 0.042969
vt 0.880687 0.042969
vt 0.828082 0.042969
vt 0.611328 0.417969
vt 0.642578 0.417969
vt 0.642575 0.292969
vt 0.720703 0.417969
vt 0.714326 0.478485
vt 0.725119 0.477956
vt 0.611328 0.167969
vt 0.611322 0.292969
vt 0.687607 0.105469
vt 0.687480 0.167969
vt 0.701131 0.167969
vt 0.701386 0.105469
vt 0.687203 0.292969
vt 0.700577 0.292969
vt 0.686976 0.417969
vt 0.685756 0.479885
vt 0.697684 0.479300
vt 0.700124 0.417969
vt 0.673828 0.042969
vt 0.685590 0.069643
vt 0.705078 0.105469
vt 0.705078 0.042969
vt 0.700827 0.479146
vt 0.696199 0.542969
vt 0.707385 0.542969
vt 0.705078 0.167969
vt 0.720703 0.167969
vt 0.720703 0.105469
vt 0.705078 0.292969
vt 0.720703 0.292969
vt 0.705078 0.417969
vt 0.720703 0.042969
vt 0.716480 0.542969
vt 0.673828 0.058594
vt 0.673828 0.542969
vt 0.673828 0.292969
vt 0.673828 0.417969
vt 0.673828 0.449219
vt 0.673828 0.167969
vt 0.673828 0.074219
vt 0.673828 0.105469
vt 0.673828 0.136719
vt 0.673828 0.480469
vt 0.673828 0.507054
vt 0.580075 0.292969
vt 0.580078 0.167969
vt 0.611328 0.431261
vt 0.580359 0.407895
vt 0.584743 0.417969
vt 0.564452 0.292969
vt 0.566786 0.386719
vt 0.548828 0.386359
vt 0.548828 0.417969
vt 0.548828 0.292969
vt 0.548828 0.355469
vt 0.564453 0.167969
vt 0.548828 0.218669
vt 0.642578 0.167969
s 1
usemtl mat_dummy
f 9/1/1 21/2/2 40/3/3 39/4/4
f 18/5/5 48/6/6 19/7/7
f 11/8/8 33/9/9 37/10/10 29/11/11
f 28/12/12 10/13/13 11/8/8 29/11/11
f 22/14/14 14/15/15 10/13/13 21/2/2
f 15/16/16 51/17/17 49/18/18 12/19/19
f 75/20/20 77/21/21 51/17/17 15/16/16
f 76/22/22 74/23/23 14/15/15 22/14/14
f 73/24/24 76/22/22 22/14/14 13/25/25
f 13/25/25 22/14/14 21/2/2 9/1/1
f 4/26/26 41/26/27 52/27/28
f 45/28/29 40/3/3 38/29/30 47/30/31
f 29/11/11 24/31/32 27/32/33 28/12/12
f 18/5/5 45/28/29 47/30/31
f 23/33/34 35/34/35 36/35/36 30/36/37
f 26/37/38 23/33/34 30/36/37 31/38/39
f 16/39/40 34/40/41 37/10/10
f 28/41/12 27/42/33 43/43/42 42/44/43
f 16/45/40 32/46/44 36/35/36
f 11/47/8 10/13/13 14/15/15 25/48/45
f 25/48/45 32/46/44 33/49/9 11/47/8
f 35/34/35 16/45/40 36/35/36
f 34/40/41 24/31/32 29/11/11 37/10/10
f 33/9/9 16/39/40 37/10/10
f 32/46/44 16/45/40 33/49/9
f 32/46/44 25/48/45 30/36/37 36/35/36
f 39/4/4 53/50/46 49/18/18 9/1/1
f 40/3/3 21/2/2 10/13/13 38/29/30
f 40/3/3 45/28/29 46/51/47 39/4/4
f 38/29/30 42/52/43 2/53/48 47/30/31
f 18/5/5 19/7/7 41/5/27
f 18/5/5 41/5/27 4/26/26
f 41/26/27 19/7/7 55/54/49
f 43/43/42 8/55/50 2/56/48 42/44/43
f 46/51/47 4/26/26 52/27/28 54/57/51
f 45/28/29 18/5/5 46/51/47
f 38/29/30 10/13/13 28/12/12 42/52/43
f 18/58/5 47/30/31 2/53/48
f 18/58/5 2/53/48 48/6/6
f 2/53/48 8/59/50 48/6/6
f 30/36/37 25/48/45 14/15/15 31/38/39
f 51/17/17 13/25/25 9/1/1 49/18/18
f 41/26/27 55/54/49 52/27/28
f 53/50/46 39/4/4 46/51/47 54/57/51
f 77/21/21 73/24/24 13/25/25 51/17/17
f 6/60/52 44/61/53 55/54/49
f 19/7/7 6/60/52 55/54/49
f 55/54/49 54/57/51 52/27/28
f 55/54/49 44/61/53 54/57/51
f 18/5/5 4/26/26 46/51/47
f 12/19/19 49/18/18 53/50/46 56/62/54
f 53/50/46 54/57/51 44/61/53 56/62/54
f 57/63/55 91/64/56 90/65/57
f 67/66/58 72/67/59 103/68/60 74/23/23
f 50/69/61 58/70/62 90/65/57
f 86/71/63 83/72/64 79/73/65 78/74/66
f 83/72/64 85/75/67 80/76/68 79/73/65
f 84/77/69 87/78/70 81/79/71 82/80/72
f 85/75/67 84/77/69 82/80/72 80/76/68
f 5/81/73 101/82/74 64/83/75 61/84/76
f 65/85/77 63/86/78 70/87/79 72/67/59
f 64/83/75 59/88/80 66/89/81 71/90/82
f 59/88/80 62/91/83 69/92/84 66/89/81
f 60/93/85 65/85/77 72/67/59 67/66/58
f 62/91/83 60/93/85 67/66/58 69/92/84
f 61/84/76 64/83/75 71/90/82 68/94/86
f 71/90/82 66/89/81 73/24/24 77/21/21
f 66/89/81 69/92/84 76/22/22 73/24/24
f 69/92/84 67/66/58 74/23/23 76/22/22
f 68/94/86 71/90/82 77/21/21 75/20/20
f 31/38/39 14/15/15 74/23/23
f 72/67/59 70/87/79 102/95/87 103/68/60
f 78/74/66 97/96/88 86/71/63
f 80/76/68 62/91/83 59/88/80 79/73/65
f 81/79/71 65/85/77 60/93/85 82/80/72
f 7/97/89 63/86/78 65/85/77 81/79/71
f 82/80/72 60/93/85 62/91/83 80/76/68
f 79/73/65 59/88/80 64/83/75 78/74/66
f 17/98/90 1/99/91 84/77/69 85/75/67
f 1/99/91 91/100/56 87/78/70 84/77/69
f 3/101/92 17/98/90 85/75/67 83/72/64
f 86/71/63 88/102/93 50/103/61 92/104/94
f 91/100/56 57/105/55 94/106/95 87/78/70
f 89/107/96 58/70/62 50/69/61 88/108/93
f 96/109/97 99/110/98 94/106/95
f 90/65/57 91/64/56 1/99/91
f 90/65/57 17/98/90 3/101/92
f 92/104/94 3/101/92 83/72/64 86/71/63
f 94/111/95 57/63/55 58/70/62 89/107/96
f 94/111/95 89/107/96 98/112/99 96/113/97
f 95/114/100 7/115/89 81/79/71 99/110/98
f 98/112/99 20/116/101 93/117/102 96/113/97
f 98/112/99 89/107/96 88/108/93 97/118/88
f 81/79/71 87/78/70 99/110/98
f 96/109/97 93/117/102 99/110/98
f 99/110/98 87/78/70 94/106/95
f 97/96/88 88/102/93 86/71/63
f 100/119/103 20/116/101 98/112/99 97/118/88
f 93/117/102 95/114/100 99/110/98
f 101/82/74 5/81/73 100/119/103
f 101/82/74 78/74/66 64/83/75
f 100/119/103 97/118/88 78/74/66 101/82/74
f 102/95/87 26/37/38 31/38/39 103/68/60
f 103/68/60 31/38/39 74/23/23
f 57/63/55 90/65/57 58/70/62
f 50/69/61 90/65/57 92/120/94
f 90/65/57 1/99/91 17/98/90
f 90/65/57 3/101/92 92/120/94
f 108/1/104 127/4/105 128/3/106 115/2/107
f 114/5/108 19/7/7 48/6/6
f 110/8/109 119/11/110 125/10/111 123/9/112
f 118/12/113 119/11/110 110/8/109 109/13/114
f 116/14/115 115/2/107 109/13/114 112/15/116
f 15/16/16 12/19/19 134/18/117 136/17/118
f 75/20/20 15/16/16 136/17/118 156/21/119
f 155/22/120 116/14/115 112/15/116 154/23/121
f 153/24/122 111/25/123 116/14/115 155/22/120
f 111/25/123 108/1/104 115/2/107 116/14/115
f 107/26/124 137/27/125 129/26/126
f 131/28/127 133/30/128 126/29/129 128/3/106
f 119/11/110 118/12/113 27/32/33 24/31/32
f 114/5/108 133/30/128 131/28/127
f 23/33/34 120/36/130 124/35/131 35/34/35
f 26/37/38 121/38/132 120/36/130 23/33/34
f 16/39/40 125/10/111 34/40/41
f 118/41/113 130/44/133 43/43/42 27/42/33
f 16/45/40 124/35/131 122/46/134
f 110/47/109 117/48/135 112/15/116 109/13/114
f 117/48/135 110/47/109 123/49/112 122/46/134
f 35/34/35 124/35/131 16/45/40
f 34/40/41 125/10/111 119/11/110 24/31/32
f 123/9/112 125/10/111 16/39/40
f 122/46/134 123/49/112 16/45/40
f 122/46/134 124/35/131 120/36/130 117/48/135
f 127/4/105 108/1/104 134/18/117 138/50/136
f 128/3/106 126/29/129 109/13/114 115/2/107
f 128/3/106 127/4/105 132/51/137 131/28/127
f 126/29/129 133/30/128 105/53/138 130/52/133
f 114/5/108 129/5/126 19/7/7
f 114/5/108 107/26/124 129/5/126
f 129/26/126 140/54/139 19/7/7
f 43/43/42 130/44/133 105/56/138 8/55/50
f 132/51/137 139/57/140 137/27/125 107/26/124
f 131/28/127 132/51/137 114/5/108
f 126/29/129 130/52/133 118/12/113 109/13/114
f 114/58/108 105/53/138 133/30/128
f 114/58/108 48/6/6 105/53/138
f 105/53/138 48/6/6 8/59/50
f 120/36/130 121/38/132 112/15/116 117/48/135
f 136/17/118 134/18/117 108/1/104 111/25/123
f 129/26/126 137/27/125 140/54/139
f 138/50/136 139/57/140 132/51/137 127/4/105
f 156/21/119 136/17/118 111/25/123 153/24/122
f 6/60/52 140/54/139 44/61/53
f 19/7/7 140/54/139 6/60/52
f 140/54/139 137/27/125 139/57/140
f 140/54/139 139/57/140 44/61/53
f 114/5/108 132/51/137 107/26/124
f 12/19/19 56/62/54 138/50/136 134/18/117
f 138/50/136 56/62/54 44/61/53 139/57/140
f 141/63/141 169/65/57 170/64/142
f 149/66/143 154/23/121 178/68/144 152/67/145
f 135/69/146 169/65/57 142/70/147
f 165/71/148 157/74/149 158/73/150 162/72/151
f 162/72/151 158/73/150 159/76/152 164/75/153
f 163/77/154 161/80/155 160/79/156 166/78/157
f 164/75/153 159/76/152 161/80/155 163/77/154
f 5/81/73 61/84/76 146/83/158 177/82/159
f 147/85/160 152/67/145 70/87/79 63/86/78
f 146/83/158 151/90/161 148/89/162 143/88/163
f 143/88/163 148/89/162 150/92/164 145/91/165
f 144/93/166 149/66/143 152/67/145 147/85/160
f 145/91/165 150/92/164 149/66/143 144/93/166
f 61/84/76 68/94/86 151/90/161 146/83/158
f 151/90/161 156/21/119 153/24/122 148/89/162
f 148/89/162 153/24/122 155/22/120 150/92/164
f 150/92/164 155/22/120 154/23/121 149/66/143
f 68/94/86 75/20/20 156/21/119 151/90/161
f 121/38/132 154/23/121 112/15/116
f 152/67/145 178/68/144 102/95/87 70/87/79
f 157/74/149 165/71/148 174/96/167
f 159/76/152 158/73/150 143/88/163 145/91/165
f 160/79/156 161/80/155 144/93/166 147/85/160
f 7/97/89 160/79/156 147/85/160 63/86/78
f 161/80/155 159/76/152 145/91/165 144/93/166
f 158/73/150 157/74/149 146/83/158 143/88/163
f 113/98/168 164/75/153 163/77/154 104/99/169
f 104/99/169 163/77/154 166/78/157 170/100/142
f 106/101/170 162/72/151 164/75/153 113/98/168
f 165/71/148 171/104/171 135/103/146 167/102/172
f 170/100/142 166/78/157 172/106/173 141/105/141
f 168/107/174 167/108/172 135/69/146 142/70/147
f 173/109/175 172/106/173 176/110/176
f 169/65/57 104/99/169 170/64/142
f 169/65/57 106/101/170 113/98/168
f 171/104/171 165/71/148 162/72/151 106/101/170
f 172/111/173 168/107/174 142/70/147 141/63/141
f 172/111/173 173/113/175 175/112/177 168/107/174
f 95/114/100 176/110/176 160/79/156 7/115/89
f 175/112/177 173/113/175 93/117/102 20/116/101
f 175/112/177 174/118/167 167/108/172 168/107/174
f 160/79/156 176/110/176 166/78/157
f 173/109/175 176/110/176 93/117/102
f 176/110/176 172/106/173 166/78/157
f 174/96/167 165/71/148 167/102/172
f 100/119/103 174/118/167 175/112/177 20/116/101
f 93/117/102 176/110/176 95/114/100
f 177/82/159 100/119/103 5/81/73
f 177/82/159 146/83/158 157/74/149
f 100/119/103 177/82/159 157/74/149 174/118/167
f 102/95/87 178/68/144 121/38/132 26/37/38
f 178/68/144 154/23/121 121/38/132
f 141/63/141 142/70/147 169/65/57
f 135/69/146 171/120/171 169/65/57
f 169/65/57 113/98/168 104/99/169
f 169/65/57 171/120/171 106/101/170
